<?xml version="1.0" encoding="utf-8"?>
<!-- Generator: Adobe Illustrator 16.0.0, SVG Export Plug-In . SVG Version: 6.00 Build 0)  -->
<!DOCTYPE svg PUBLIC "-//W3C//DTD SVG 1.1//EN" "http://www.w3.org/Graphics/SVG/1.1/DTD/svg11.dtd">
<svg version="1.1" id="Layer_1" xmlns="http://www.w3.org/2000/svg" xmlns:xlink="http://www.w3.org/1999/xlink" x="0px" y="0px"
	 width="96px" height="386px" viewBox="0 0 96 386" enable-background="new 0 0 96 386" xml:space="preserve">
<rect x="0.061" fill="#E5007E" width="95.907" height="386"/>
<g>
	<path fill="#E5007E" d="M5.813,225.036c6.294-6.559,9.796-12.781,10.067-16.624c0.166-2.357-0.068-4.177-2.163-4.898
		c-2.476-0.852-5.057,0.806-8.233,7.375C3.653,214.677,1,215.062,0,215.066v15.483C2,228.978,3.825,227.106,5.813,225.036z"/>
	<path fill="#E5007E" d="M61.679,347.739c-2.477-0.853-5.031,0.804-8.207,7.375c-1.832,3.79-4.867,4.173-5.459,4.179
		c-0.592-0.006-3.627-0.389-5.459-4.179c-3.174-6.571-5.73-8.229-8.205-7.375c-2.094,0.72-2.338,2.543-2.17,4.897
		c0.272,3.844,3.758,10.065,10.051,16.625c1.988,2.071,3.996,3.942,5.783,5.515c1.789-1.573,3.795-3.444,5.783-5.515
		c6.295-6.561,9.782-12.781,10.053-16.625C64.015,350.282,63.771,348.459,61.679,347.739z"/>
	<path fill="#E5007E" d="M6.562,0H0v8.708C0,8.71,0,8.712,0,8.714C1,4.566,3.062,1.637,6.562,0z"/>
	<path fill="#E5007E" d="M5.813,128.885c6.294-6.557,9.797-12.78,10.068-16.623c0.166-2.356-0.07-4.178-2.164-4.898
		c-2.476-0.852-5.058,0.805-8.232,7.375C3.653,118.528,1,118.911,0,118.917v15.484C2,132.827,3.825,130.956,5.813,128.885z"/>
	<path fill="#E5007E" d="M0.031,38c1.787-1,3.81-3.32,5.798-5.391c6.294-6.558,9.789-12.718,10.06-16.562
		c0.166-2.354-0.072-4.145-2.167-4.865c-2.475-0.854-5.028,0.936-8.204,7.506C3.686,22.479,0.621,23,0.03,23H0v15
		C0,38,0.031,38,0.031,38z"/>
	<path fill="#E5007E" d="M5.813,321.186c6.293-6.56,9.795-12.78,10.068-16.624c0.166-2.356-0.07-4.177-2.164-4.897
		c-2.476-0.851-5.058,0.805-8.232,7.375C3.653,310.827,1,311.211,0,311.219V326.7C2,325.129,3.825,323.258,5.813,321.186z"/>
	<path fill="#E5007E" d="M90.526,18.588c-3.177-6.571-5.739-8.227-8.214-7.375c-2.095,0.72-2.341,2.542-2.175,4.897
		c0.272,3.843,3.772,10.066,10.066,16.624C92.191,34.804,94,36.676,96,38.248V22.767C95,22.759,92.356,22.375,90.526,18.588z"/>
	<path fill="#E5007E" d="M48.015,86.324c1.787-1.573,3.795-3.445,5.783-5.516c6.294-6.557,9.781-12.78,10.052-16.624
		c0.166-2.355-0.076-4.176-2.171-4.897c-2.475-0.852-5.03,0.804-8.206,7.375c-1.832,3.79-4.867,4.173-5.458,4.179
		c-0.592-0.007-3.628-0.39-5.459-4.179c-3.176-6.571-5.73-8.227-8.206-7.375c-2.095,0.72-2.337,2.542-2.171,4.897
		c0.272,3.843,3.758,10.066,10.052,16.624C44.219,82.879,46.227,84.751,48.015,86.324z"/>
	<path fill="#E5007E" d="M90.524,307.039c-3.176-6.57-5.738-8.228-8.215-7.375c-2.094,0.721-2.34,2.542-2.174,4.897
		c0.272,3.844,3.772,10.065,10.067,16.624C92.191,323.258,94,325.129,96,326.7v-15.481C95,311.211,92.356,310.828,90.524,307.039z"
		/>
	<path fill="#E5007E" d="M61.677,251.589c-2.475-0.853-5.03,0.805-8.205,7.375c-1.832,3.79-4.867,4.173-5.459,4.179
		c-0.592-0.006-3.627-0.389-5.459-4.179c-3.175-6.57-5.73-8.228-8.206-7.375c-2.095,0.721-2.337,2.543-2.171,4.898
		c0.272,3.843,3.758,10.065,10.053,16.624c1.988,2.071,3.995,3.942,5.783,5.516c1.787-1.574,3.795-3.445,5.783-5.516
		c6.294-6.559,9.781-12.781,10.053-16.624C64.015,254.131,63.772,252.31,61.677,251.589z"/>
	<path fill="#E5007E" d="M67.346,110.839c0-8.505,5.596-15.769,13.528-16.186C88.618,94.246,95,97.803,96,104.862V53.887
		c-3-1.9-28.654-21.904-28.654-39.198c0-6.39,3.139-12.077,8.071-14.689H20.612c4.932,2.612,8.086,8.355,8.086,14.745
		C28.698,32.042,2.606,52,0.031,54H0v50.864c1-7.061,7.403-10.619,15.148-10.211c7.932,0.417,13.505,7.682,13.505,16.186
		c0,17.297-25.653,37.306-28.653,39.2v50.973c1-7.059,7.404-10.616,15.148-10.209c7.931,0.418,13.504,7.682,13.505,16.186
		C28.653,224.285,3,244.292,0,246.188v50.976c0,0.001,0,0.002,0,0.003c1-7.062,7.403-10.621,15.147-10.213
		c7.931,0.418,13.535,8.012,13.536,16.518C28.683,320.766,2.597,341,0.023,343H0v43h42.543c-8.4-7-23.167-21.765-23.167-34.786
		c0-8.504,5.588-15.767,13.52-16.185c7.744-0.408,14.195,3.151,15.117,10.211c0.922-7.061,7.373-10.619,15.119-10.211
		c7.931,0.418,13.519,7.681,13.52,16.185c0,13.021-14.768,27.786-23.169,34.786H96v-43.663c-3-1.896-28.654-21.903-28.654-39.198
		c0-8.505,5.596-15.768,13.528-16.186C88.618,286.545,95,290.104,96,297.161v-50.974c-3-1.894-28.654-21.901-28.654-39.199
		c0-8.504,5.597-15.768,13.529-16.186C88.62,190.396,95,193.954,96,201.015v-50.977C93,148.143,67.346,128.135,67.346,110.839z
		 M19.376,62.763c0-8.505,5.589-15.769,13.521-16.186c7.745-0.408,14.196,3.152,15.118,10.211
		c0.921-7.059,7.372-10.619,15.117-10.211c7.932,0.417,13.52,7.681,13.52,16.186c0,17.297-26.062,37.306-28.637,39.2
		C45.438,100.067,19.376,80.06,19.376,62.763z M76.653,255.064c0,17.297-26.064,37.306-28.639,39.199
		c-2.577-1.894-28.639-21.902-28.639-39.199c0-8.505,5.589-15.768,13.521-16.186c7.745-0.407,14.196,3.151,15.118,10.211
		c0.922-7.062,7.373-10.618,15.117-10.211C71.062,239.297,76.652,246.56,76.653,255.064z M48.014,198.113
		c-2.576-1.895-28.638-21.903-28.638-39.2c0-8.505,5.588-15.769,13.52-16.186c7.745-0.407,14.196,3.151,15.118,10.211
		c0.922-7.061,7.373-10.62,15.118-10.211c7.932,0.417,13.52,7.682,13.52,16.186C76.651,176.21,50.59,196.219,48.014,198.113z"/>
	<path fill="#E5007E" d="M61.679,155.438c-2.476-0.852-5.031,0.804-8.206,7.375c-1.832,3.79-4.867,4.172-5.459,4.178
		c-0.592-0.006-3.627-0.389-5.459-4.178c-3.175-6.571-5.73-8.227-8.206-7.375c-2.094,0.721-2.337,2.542-2.171,4.897
		c0.272,3.843,3.759,10.066,10.053,16.624c1.988,2.071,3.995,3.942,5.783,5.517c1.787-1.574,3.795-3.445,5.783-5.517
		c6.294-6.557,9.782-12.78,10.053-16.624C64.016,157.98,63.772,156.158,61.679,155.438z"/>
	<path fill="#E5007E" d="M95.982,215c-0.591,0-3.635-0.354-5.466-4.145c-3.175-6.568-5.735-8.21-8.21-7.357
		c-2.095,0.721-2.34,2.55-2.173,4.906c0.272,3.843,3.757,10.293,10.051,16.853c1.988,2.072,4.012,3.743,5.799,5.743H96v-16
		C96,215,95.983,215,95.982,215z"/>
	<path fill="#E5007E" d="M90.524,114.739c-3.175-6.571-5.738-8.227-8.213-7.375c-2.094,0.721-2.342,2.542-2.176,4.898
		c0.273,3.843,3.774,10.065,10.068,16.623C92.191,130.956,94,132.827,96,134.4v-15.483C95,118.911,92.356,118.527,90.524,114.739z"
		/>
	<path fill="#E5007E" d="M96,8.706V0h-6.533C92.965,1.636,95,4.562,96,8.706z"/>
	<path fill="#E5007E" d="M48.015,101.962c2.575-1.894,28.637-21.902,28.637-39.2c0-8.505-5.588-15.769-13.52-16.186
		c-7.745-0.408-14.196,3.152-15.117,10.211c-0.922-7.059-7.373-10.619-15.118-10.211c-7.932,0.417-13.521,7.681-13.521,16.186
		C19.376,80.06,45.438,100.067,48.015,101.962z M34.35,59.287c2.476-0.852,5.03,0.804,8.206,7.375
		c1.831,3.789,4.867,4.172,5.459,4.179c0.591-0.006,3.626-0.389,5.458-4.179c3.176-6.571,5.731-8.227,8.206-7.375
		c2.095,0.721,2.337,2.542,2.171,4.897c-0.271,3.843-3.758,10.066-10.052,16.624c-1.988,2.071-3.996,3.943-5.783,5.516
		c-1.788-1.573-3.796-3.445-5.784-5.516c-6.294-6.557-9.779-12.78-10.052-16.624C32.013,61.83,32.255,60.007,34.35,59.287z"/>
	<path opacity="0.2" fill="#FFFFFF" enable-background="new    " d="M48.015,101.962c2.575-1.894,28.637-21.902,28.637-39.2
		c0-8.505-5.588-15.769-13.52-16.186c-7.745-0.408-14.196,3.152-15.117,10.211c-0.922-7.059-7.373-10.619-15.118-10.211
		c-7.932,0.417-13.521,7.681-13.521,16.186C19.376,80.06,45.438,100.067,48.015,101.962z M34.35,59.287
		c2.476-0.852,5.03,0.804,8.206,7.375c1.831,3.789,4.867,4.172,5.459,4.179c0.591-0.006,3.626-0.389,5.458-4.179
		c3.176-6.571,5.731-8.227,8.206-7.375c2.095,0.721,2.337,2.542,2.171,4.897c-0.271,3.843-3.758,10.066-10.052,16.624
		c-1.988,2.071-3.996,3.943-5.783,5.516c-1.788-1.573-3.796-3.445-5.784-5.516c-6.294-6.557-9.779-12.78-10.052-16.624
		C32.013,61.83,32.255,60.007,34.35,59.287z"/>
	<path fill="#E5007E" d="M63.132,142.727c-7.745-0.408-14.196,3.15-15.118,10.211c-0.922-7.06-7.373-10.619-15.118-10.211
		c-7.932,0.417-13.52,7.681-13.52,16.186c0,17.297,26.062,37.306,28.638,39.2c2.576-1.895,28.638-21.903,28.638-39.201
		C76.651,150.409,71.063,143.145,63.132,142.727z M63.85,160.335c-0.271,3.843-3.759,10.066-10.053,16.624
		c-1.988,2.071-3.996,3.942-5.783,5.517c-1.788-1.574-3.795-3.445-5.783-5.517c-6.294-6.558-9.78-12.78-10.053-16.624
		c-0.166-2.355,0.077-4.177,2.171-4.897c2.476-0.852,5.031,0.804,8.206,7.375c1.832,3.79,4.867,4.172,5.459,4.178
		c0.592-0.006,3.627-0.389,5.459-4.178c3.175-6.571,5.73-8.227,8.206-7.375C63.772,156.158,64.016,157.98,63.85,160.335z"/>
	<path opacity="0.2" fill="#FFFFFF" enable-background="new    " d="M63.132,142.727c-7.745-0.408-14.196,3.15-15.118,10.211
		c-0.922-7.06-7.373-10.619-15.118-10.211c-7.932,0.417-13.52,7.681-13.52,16.186c0,17.297,26.062,37.306,28.638,39.2
		c2.576-1.895,28.638-21.903,28.638-39.201C76.651,150.409,71.063,143.145,63.132,142.727z M63.85,160.335
		c-0.271,3.843-3.759,10.066-10.053,16.624c-1.988,2.071-3.996,3.942-5.783,5.517c-1.788-1.574-3.795-3.445-5.783-5.517
		c-6.294-6.558-9.78-12.78-10.053-16.624c-0.166-2.355,0.077-4.177,2.171-4.897c2.476-0.852,5.031,0.804,8.206,7.375
		c1.832,3.79,4.867,4.172,5.459,4.178c0.592-0.006,3.627-0.389,5.459-4.178c3.175-6.571,5.73-8.227,8.206-7.375
		C63.772,156.158,64.016,157.98,63.85,160.335z"/>
	<path fill="#E5007E" d="M48.014,249.09c-0.922-7.06-7.373-10.618-15.118-10.211c-7.932,0.418-13.521,7.681-13.521,16.186
		c0,17.297,26.062,37.306,28.639,39.199c2.575-1.894,28.639-21.902,28.639-39.199c-0.001-8.505-5.591-15.768-13.522-16.186
		C55.387,238.472,48.936,242.028,48.014,249.09z M63.849,256.487c-0.272,3.843-3.759,10.065-10.053,16.624
		c-1.988,2.07-3.996,3.941-5.783,5.516c-1.788-1.573-3.795-3.444-5.783-5.516c-6.295-6.559-9.781-12.781-10.053-16.624
		c-0.166-2.355,0.076-4.178,2.171-4.898c2.476-0.853,5.031,0.805,8.206,7.375c1.832,3.79,4.867,4.173,5.459,4.179
		c0.592-0.006,3.627-0.389,5.459-4.179c3.175-6.57,5.73-8.228,8.205-7.375C63.772,252.31,64.015,254.131,63.849,256.487z"/>
	<path opacity="0.2" fill="#FFFFFF" enable-background="new    " d="M48.014,249.09c-0.922-7.06-7.373-10.618-15.118-10.211
		c-7.932,0.418-13.521,7.681-13.521,16.186c0,17.297,26.062,37.306,28.639,39.199c2.575-1.894,28.639-21.902,28.639-39.199
		c-0.001-8.505-5.591-15.768-13.522-16.186C55.387,238.472,48.936,242.028,48.014,249.09z M63.849,256.487
		c-0.272,3.843-3.759,10.065-10.053,16.624c-1.988,2.07-3.996,3.941-5.783,5.516c-1.788-1.573-3.795-3.444-5.783-5.516
		c-6.295-6.559-9.781-12.781-10.053-16.624c-0.166-2.355,0.076-4.178,2.171-4.898c2.476-0.853,5.031,0.805,8.206,7.375
		c1.832,3.79,4.867,4.173,5.459,4.179c0.592-0.006,3.627-0.389,5.459-4.179c3.175-6.57,5.73-8.228,8.205-7.375
		C63.772,252.31,64.015,254.131,63.849,256.487z"/>
	<path fill="#E5007E" d="M28.698,14.745c0-6.39-3.154-12.132-8.086-14.745H6.562C3.062,1.637,1,4.566,0,8.714
		C0,8.712,0,8.71,0,8.708V23h0.031c0.591,0,3.641-0.505,5.473-4.295c3.176-6.571,5.739-8.286,8.213-7.433
		c2.095,0.721,2.341,2.513,2.175,4.868c-0.271,3.843-3.756,9.927-10.05,16.484C3.854,34.695,1.817,37,0.03,38c0,0-0.03,0-0.03,0v16
		h0.031C2.606,52,28.698,32.042,28.698,14.745z"/>
	<path opacity="0.2" fill="#FFFFFF" enable-background="new    " d="M28.698,14.745c0-6.39-3.154-12.132-8.086-14.745H6.562
		C3.062,1.637,1,4.566,0,8.714C0,8.712,0,8.71,0,8.708V23h0.031c0.591,0,3.641-0.505,5.473-4.295
		c3.176-6.571,5.739-8.286,8.213-7.433c2.095,0.721,2.341,2.513,2.175,4.868c-0.271,3.843-3.756,9.927-10.05,16.484
		C3.854,34.695,1.817,37,0.03,38c0,0-0.03,0-0.03,0v16h0.031C2.606,52,28.698,32.042,28.698,14.745z"/>
	<path fill="#E5007E" d="M28.668,110.838c0-8.503-5.603-15.768-13.535-16.186C7.388,94.245,1,97.803,0,104.864v14.053
		c1-0.006,3.657-0.389,5.489-4.178c3.175-6.571,5.745-8.227,8.221-7.375c2.094,0.72,2.345,2.542,2.179,4.898
		c-0.271,3.843-3.786,10.066-10.08,16.623C3.821,130.956,2,132.827,0,134.401v15.638C3,148.145,28.668,128.136,28.668,110.838z"/>
	<path opacity="0.2" fill="#FFFFFF" enable-background="new    " d="M28.668,110.838c0-8.503-5.603-15.768-13.535-16.186
		C7.388,94.245,1,97.803,0,104.864v14.053c1-0.006,3.657-0.389,5.489-4.178c3.175-6.571,5.745-8.227,8.221-7.375
		c2.094,0.72,2.345,2.542,2.179,4.898c-0.271,3.843-3.786,10.066-10.08,16.623C3.821,130.956,2,132.827,0,134.401v15.638
		C3,148.145,28.668,128.136,28.668,110.838z"/>
	<path fill="#E5007E" d="M28.668,206.988c-0.001-8.504-5.604-15.768-13.535-16.186C7.389,190.396,1,193.953,0,201.012v14.055
		c1-0.005,3.657-0.39,5.488-4.178c3.176-6.569,5.746-8.227,8.221-7.375c2.095,0.722,2.345,2.541,2.179,4.898
		c-0.271,3.843-3.785,10.065-10.079,16.624C3.821,227.106,2,228.978,0,230.55v15.638C3,244.292,28.668,224.285,28.668,206.988z"/>
	<path opacity="0.2" fill="#FFFFFF" enable-background="new    " d="M28.668,206.988c-0.001-8.504-5.604-15.768-13.535-16.186
		C7.389,190.396,1,193.953,0,201.012v14.055c1-0.005,3.657-0.39,5.488-4.178c3.176-6.569,5.746-8.227,8.221-7.375
		c2.095,0.722,2.345,2.541,2.179,4.898c-0.271,3.843-3.785,10.065-10.079,16.624C3.821,227.106,2,228.978,0,230.55v15.638
		C3,244.292,28.668,224.285,28.668,206.988z"/>
	<path fill="#E5007E" d="M28.698,303.471c-0.001-8.506-5.62-15.934-13.551-16.352C7.403,286.711,1,290.104,0,297.166
		c0-0.001,0-0.002,0-0.003v14.056c1-0.008,3.657-0.392,5.489-4.18c3.174-6.57,5.745-8.226,8.22-7.375
		c2.094,0.721,2.346,2.541,2.18,4.897c-0.273,3.844-3.787,10.064-10.08,16.624C3.821,323.258,2,325.129,0,326.7V343h0.031
		C2.605,341,28.698,320.766,28.698,303.471z"/>
	<path opacity="0.2" fill="#FFFFFF" enable-background="new    " d="M28.698,303.471c-0.001-8.506-5.62-15.934-13.551-16.352
		C7.403,286.711,1,290.104,0,297.166c0-0.001,0-0.002,0-0.003v14.056c1-0.008,3.657-0.392,5.489-4.18
		c3.174-6.57,5.745-8.226,8.22-7.375c2.094,0.721,2.346,2.541,2.18,4.897c-0.273,3.844-3.787,10.064-10.08,16.624
		C3.821,323.258,2,325.129,0,326.7V343h0.031C2.605,341,28.698,320.766,28.698,303.471z"/>
	<path fill="#E5007E" d="M67.346,14.689C67.346,31.983,93,51.987,96,53.887V38.248c-2-1.572-3.812-3.444-5.799-5.514
		c-6.294-6.558-9.788-12.781-10.06-16.624c-0.166-2.354,0.071-4.177,2.167-4.897c2.475-0.853,5.044,0.804,8.221,7.375
		C92.358,22.375,95,22.759,96,22.767V8.706C95,4.562,92.965,1.636,89.467,0h-14.05C70.484,2.612,67.346,8.299,67.346,14.689z"/>
	<path opacity="0.2" fill="#FFFFFF" enable-background="new    " d="M67.346,14.689C67.346,31.983,93,51.987,96,53.887V38.248
		c-2-1.572-3.812-3.444-5.799-5.514c-6.294-6.558-9.788-12.781-10.06-16.624c-0.166-2.354,0.071-4.177,2.167-4.897
		c2.475-0.853,5.044,0.804,8.221,7.375C92.358,22.375,95,22.759,96,22.767V8.706C95,4.562,92.965,1.636,89.467,0h-14.05
		C70.484,2.612,67.346,8.299,67.346,14.689z"/>
	<path fill="#E5007E" d="M80.866,94.653c-7.933,0.417-13.512,7.681-13.512,16.186c0,17.296,25.646,37.304,28.646,39.199V134.4
		c-2-1.574-3.812-3.444-5.799-5.516c-6.294-6.558-9.789-12.78-10.062-16.623c-0.166-2.356,0.073-4.177,2.167-4.898
		c2.476-0.852,5.045,0.805,8.22,7.375c1.832,3.788,4.473,4.171,5.473,4.178v-14.055C95,97.803,88.61,94.246,80.866,94.653z"/>
	<path opacity="0.2" fill="#FFFFFF" enable-background="new    " d="M80.866,94.653c-7.933,0.417-13.512,7.681-13.512,16.186
		c0,17.296,25.646,37.304,28.646,39.199V134.4c-2-1.574-3.812-3.444-5.799-5.516c-6.294-6.558-9.789-12.78-10.062-16.623
		c-0.166-2.356,0.073-4.177,2.167-4.898c2.476-0.852,5.045,0.805,8.22,7.375c1.832,3.788,4.473,4.171,5.473,4.178v-14.055
		C95,97.803,88.61,94.246,80.866,94.653z"/>
	<path fill="#E5007E" d="M80.867,190.803c-7.933,0.418-13.513,7.682-13.513,16.186c0,17.298,25.646,37.306,28.646,39.199V231
		c0,0-0.017,0-0.018,0c-1.787-2-3.803-3.668-5.791-5.74c-6.294-6.559-9.785-12.893-10.057-16.735
		c-0.167-2.356,0.074-4.232,2.169-4.954c2.475-0.852,5.03,0.744,8.205,7.313c1.831,3.791,4.883,4.116,5.474,4.116H96v-13.985
		C95,193.954,88.611,190.396,80.867,190.803z"/>
	<path opacity="0.2" fill="#FFFFFF" enable-background="new    " d="M80.867,190.803c-7.933,0.418-13.513,7.682-13.513,16.186
		c0,17.298,25.646,37.306,28.646,39.199V231c0,0-0.017,0-0.018,0c-1.787-2-3.803-3.668-5.791-5.74
		c-6.294-6.559-9.785-12.893-10.057-16.735c-0.167-2.356,0.074-4.232,2.169-4.954c2.475-0.852,5.03,0.744,8.205,7.313
		c1.831,3.791,4.883,4.116,5.474,4.116H96v-13.985C95,193.954,88.611,190.396,80.867,190.803z"/>
	<path fill="#E5007E" d="M80.865,286.953c-7.932,0.418-13.512,7.681-13.512,16.186C67.354,320.434,93,340.44,96,342.337V326.7
		c-2-1.571-3.812-3.442-5.8-5.515c-6.295-6.559-9.789-12.78-10.061-16.624c-0.166-2.355,0.072-4.177,2.166-4.897
		c2.477-0.853,5.046,0.805,8.222,7.375c1.832,3.789,4.473,4.172,5.473,4.18v-14.058C95,290.104,88.609,286.545,80.865,286.953z"/>
	<path opacity="0.2" fill="#FFFFFF" enable-background="new    " d="M80.865,286.953c-7.932,0.418-13.512,7.681-13.512,16.186
		C67.354,320.434,93,340.44,96,342.337V326.7c-2-1.571-3.812-3.442-5.8-5.515c-6.295-6.559-9.789-12.78-10.061-16.624
		c-0.166-2.355,0.072-4.177,2.166-4.897c2.477-0.853,5.046,0.805,8.222,7.375c1.832,3.789,4.473,4.172,5.473,4.18v-14.058
		C95,290.104,88.609,286.545,80.865,286.953z"/>
	<path fill="#E5007E" d="M76.652,351.214c-0.001-8.504-5.589-15.767-13.52-16.185c-7.746-0.408-14.197,3.15-15.119,10.211
		c-0.922-7.06-7.373-10.619-15.117-10.211c-7.932,0.418-13.52,7.681-13.52,16.185c0,13.021,14.767,27.786,23.167,34.786h10.94
		C61.884,379,76.652,364.235,76.652,351.214z M48.013,374.776c-1.787-1.572-3.795-3.443-5.783-5.515
		c-6.293-6.56-9.779-12.781-10.051-16.625c-0.168-2.354,0.076-4.178,2.17-4.897c2.475-0.854,5.031,0.804,8.205,7.375
		c1.832,3.79,4.867,4.173,5.459,4.179c0.592-0.006,3.627-0.389,5.459-4.179c3.176-6.571,5.73-8.228,8.207-7.375
		c2.093,0.72,2.336,2.543,2.17,4.897c-0.271,3.844-3.758,10.064-10.053,16.625C51.808,371.332,49.802,373.203,48.013,374.776z"/>
	<path opacity="0.2" fill="#FFFFFF" enable-background="new    " d="M76.652,351.214c-0.001-8.504-5.589-15.767-13.52-16.185
		c-7.746-0.408-14.197,3.15-15.119,10.211c-0.922-7.06-7.373-10.619-15.117-10.211c-7.932,0.418-13.52,7.681-13.52,16.185
		c0,13.021,14.767,27.786,23.167,34.786h10.94C61.884,379,76.652,364.235,76.652,351.214z M48.013,374.776
		c-1.787-1.572-3.795-3.443-5.783-5.515c-6.293-6.56-9.779-12.781-10.051-16.625c-0.168-2.354,0.076-4.178,2.17-4.897
		c2.475-0.854,5.031,0.804,8.205,7.375c1.832,3.79,4.867,4.173,5.459,4.179c0.592-0.006,3.627-0.389,5.459-4.179
		c3.176-6.571,5.73-8.228,8.207-7.375c2.093,0.72,2.336,2.543,2.17,4.897c-0.271,3.844-3.758,10.064-10.053,16.625
		C51.808,371.332,49.802,373.203,48.013,374.776z"/>
</g>
</svg>
