<?xml version="1.0" encoding="utf-8"?>
<!-- Generator: Adobe Illustrator 16.0.0, SVG Export Plug-In . SVG Version: 6.00 Build 0)  -->
<!DOCTYPE svg PUBLIC "-//W3C//DTD SVG 1.1//EN" "http://www.w3.org/Graphics/SVG/1.1/DTD/svg11.dtd">
<svg version="1.1" id="Layer_1" xmlns="http://www.w3.org/2000/svg" xmlns:xlink="http://www.w3.org/1999/xlink" x="0px" y="0px"
	 width="131px" height="20.38px" viewBox="0 0 131 20.38" enable-background="new 0 0 131 20.38" xml:space="preserve">
<g>
	<path fill="#FFFFFF" d="M11.062,9.89c-0.27-1.771-1.323-2.674-3.155-2.674c-2.736,0-3.637,2.765-3.637,5.049
		c0,2.254,0.869,4.9,3.545,4.9c2.016,0,3.127-1.232,3.396-3.158h4.119c-0.571,4.119-3.366,6.373-7.484,6.373
		C3.154,20.38,0,17.074,0,12.416C0,7.575,2.885,4,7.936,4c3.666,0,7.063,1.922,7.304,5.89H11.062z"/>
	<path fill="#FFFFFF" d="M16.954,0.334L21.222,0v19.96h-4.268V0.334z"/>
	<path fill="#FFFFFF" d="M31.231,4c4.899,0,8.058,3.247,8.058,8.205c0,4.93-3.158,8.176-8.058,8.176
		c-4.868,0-8.026-3.246-8.026-8.176C23.205,7.247,26.363,4,31.231,4z M31.231,17.166c2.915,0,3.788-2.465,3.788-4.961
		c0-2.494-0.873-4.989-3.788-4.989c-2.885,0-3.757,2.495-3.757,4.989C27.475,14.701,28.347,17.166,31.231,17.166z"/>
	<path fill="#FFFFFF" d="M55.731,19.96h-4.059v-2.165h-0.091c-1.08,1.775-2.945,2.585-4.748,2.585c-4.539,0-5.684-2.555-5.684-6.401
		v-9.56h4.271v8.779c0,2.554,0.72,3.816,2.733,3.816c2.315,0,3.308-1.293,3.308-4.449V4.419h4.269V19.96z"/>
	<path fill="#FFFFFF" d="M69.168,17.974h-0.061c-0.992,1.684-2.705,2.406-4.719,2.406c-4.689,0-6.973-3.996-6.973-8.327
		C57.416,7.876,59.729,4,64.299,4c1.833,0,3.638,0.78,4.6,2.313h0.059V0.334L73.226,0v19.96h-4.058V17.974z M65.441,7.216
		c-2.797,0-3.758,2.435-3.758,4.959c0,2.434,1.111,4.99,3.758,4.99c2.795,0,3.666-2.465,3.666-5.02
		C69.107,9.62,68.205,7.216,65.441,7.216z"/>
	<path fill="#FFFFFF" d="M75.541,4.419H79.6v2.165h0.09C80.771,4.81,82.635,4,84.439,4c4.539,0,5.682,2.556,5.682,6.402v9.559h-4.27
		v-8.777c0-2.556-0.722-3.818-2.734-3.818c-2.315,0-3.308,1.293-3.308,4.449v8.146h-4.269V4.419z"/>
	<path fill="#FFFFFF" d="M92.586,4.419h4.268V19.96h-4.268V4.419z"/>
	<path fill="#FFFFFF" d="M99.318,4.419h4.059v2.165h0.091C104.55,4.81,106.414,4,108.216,4c4.539,0,5.683,2.556,5.683,6.402v9.559
		h-4.27v-8.777c0-2.556-0.722-3.818-2.734-3.818c-2.315,0-3.308,1.293-3.308,4.449v8.146h-4.269V4.419z"/>
	<path fill="#FFFFFF" d="M119.76,13.226c0.121,2.736,1.412,3.939,3.816,3.939c1.714,0,3.098-1.053,3.367-2.014h3.758
		c-1.203,3.696-3.758,5.229-7.273,5.229c-4.9,0-7.936-3.365-7.936-8.176c0-4.658,3.215-8.205,7.936-8.205
		c5.29,0,7.875,4.448,7.544,9.227H119.76z M126.703,10.522c-0.391-2.166-1.322-3.307-3.396-3.307c-2.766,0-3.457,2.104-3.547,3.307
		H126.703z"/>
</g>
</svg>
