<?xml version="1.0" encoding="utf-8"?>
<!-- Generator: Adobe Illustrator 16.0.0, SVG Export Plug-In . SVG Version: 6.00 Build 0)  -->
<!DOCTYPE svg PUBLIC "-//W3C//DTD SVG 1.1//EN" "http://www.w3.org/Graphics/SVG/1.1/DTD/svg11.dtd">
<svg version="1.1" id="Layer_1" xmlns="http://www.w3.org/2000/svg" xmlns:xlink="http://www.w3.org/1999/xlink" x="0px" y="0px"
	 width="23.235px" height="22.361px" viewBox="0 0 23.235 22.361" enable-background="new 0 0 23.235 22.361" xml:space="preserve">
<g>
	<path fill="#FFFFFF" d="M17.8,0c-2.96,0-5.745,1.224-6.084,4.111C11.379,1.224,8.593,0,5.631,0C2.439,0,0.197,3.465,0.197,6.677
		c0,2.427,1.277,4.966,2.982,7.277l1.24-1.172l2.777-0.993C5.609,9.757,4.706,7.934,4.706,6.677c0-1.092,0.649-2.018,0.959-2.168
		C6.738,4.516,7.289,4.79,7.379,4.866c0,0,1.331,1.699,1.915,2.905c0.689,1.432,2.319,1.778,2.319,1.778s1.331-0.493,2.12-1.58
		c0.791-1.084,1.878-2.804,2.321-3.104c0.089-0.076,0.64-0.35,1.712-0.356c0.311,0.15,0.961,1.075,0.961,2.168
		c0,2.596-3.493,6.78-6.943,9.865c-0.438-0.385-0.91-0.814-1.394-1.277l-0.992,3.074l-1.144,1.096
		c1.976,1.782,3.535,2.908,3.535,2.908s11.445-8.346,11.445-15.666C23.235,3.465,20.994,0,17.8,0z"/>
	<path fill="#FFFFFF" d="M10.73,11.504l-5.675,2.583l-0.009-0.009l-0.025,0.024L0,19.123c0.213,0.412,0.787,1.074,1.265,1.566
		l1.996-1.992l0.849,0.85l-2.07,2.07c0.244,0.34,0.995,0.744,0.995,0.744l5.148-5.148l-0.012-0.008L10.73,11.504z M6.716,16.904
		l-1.248,1.249l-0.182-1.191l-1.179-0.169l1.248-1.25l2.474-1.125L6.716,16.904z"/>
</g>
</svg>
