<?xml version="1.0" encoding="utf-8"?>
<!-- Generator: Adobe Illustrator 16.0.0, SVG Export Plug-In . SVG Version: 6.00 Build 0)  -->
<!DOCTYPE svg PUBLIC "-//W3C//DTD SVG 1.1//EN" "http://www.w3.org/Graphics/SVG/1.1/DTD/svg11.dtd">
<svg version="1.1" id="Layer_1" xmlns="http://www.w3.org/2000/svg" xmlns:xlink="http://www.w3.org/1999/xlink" x="0px" y="0px"
	 width="29.254px" height="25.173px" viewBox="0 0 29.254 25.173" enable-background="new 0 0 29.254 25.173" xml:space="preserve">
<g>
	<g>
		<path fill="#FFFFFF" d="M9.492,13.286c-0.328,0.227-0.49,0.49-0.49,0.788c0,0.559,0.232,0.909,0.697,1.052
			c0.137,0.042,0.281,0.064,0.434,0.064c0.596,0,1.178-0.236,1.746-0.711v-1.387H10.43C9.98,13.093,9.668,13.157,9.492,13.286z"/>
	</g>
	<g>
		<path fill="#FFFFFF" d="M19.102,10.133c-0.229-0.1-0.461-0.148-0.697-0.148c-0.842-0.005-1.41,0.418-1.703,1.27
			c-0.113,0.332-0.174,0.739-0.178,1.222c0,0.895,0.168,1.572,0.504,2.028c0.336,0.458,0.797,0.687,1.385,0.687
			c0.586,0,1.037-0.248,1.35-0.746s0.469-1.129,0.469-1.896C20.225,11.266,19.85,10.46,19.102,10.133z"/>
	</g>
	<g>
		<path fill="#FFFFFF" d="M14.852,0.004C6.775-0.156,0.125,4.822,0.002,11.121c-0.045,2.19,0.707,4.251,2.047,6.015H2.047
			c2.301,2.957-0.209,8.037-0.209,8.037l7.412-3.193c1.598,0.506,3.332,0.799,5.152,0.836c8.076,0.158,14.727-4.819,14.85-11.118
			S22.928,0.164,14.852,0.004z M14.576,15.925c-0.045,0.121-0.121,0.193-0.219,0.217c-0.266,0.075-0.646,0.113-1.141,0.113
			s-0.77-0.008-0.826-0.025c-0.059-0.016-0.121-0.055-0.189-0.117c-0.068-0.061-0.146-0.215-0.238-0.461
			c-0.576,0.421-1.252,0.632-2.023,0.632s-1.359-0.187-1.764-0.562c-0.406-0.373-0.607-0.852-0.607-1.434
			c0-0.739,0.25-1.3,0.752-1.684c0.502-0.384,1.104-0.574,1.805-0.574h1.754c0-0.792-0.066-1.302-0.195-1.532
			c-0.131-0.229-0.287-0.388-0.469-0.476c-0.184-0.087-0.426-0.131-0.729-0.131H9.762c0.059,0.124,0.086,0.296,0.086,0.519
			c0,0.223-0.092,0.426-0.277,0.61c-0.184,0.185-0.416,0.281-0.695,0.286c-0.441,0-0.742-0.195-0.902-0.584
			c-0.047-0.118-0.07-0.262-0.07-0.434c0-0.341,0.18-0.634,0.539-0.879c0.52-0.345,1.326-0.519,2.414-0.519
			c0.867,0,1.506,0.263,1.918,0.789c0.326,0.421,0.49,1.018,0.49,1.789v3.672h1.191c0.129,0,0.193,0.141,0.193,0.42
			C14.648,15.682,14.625,15.804,14.576,15.925z M20.719,15.317c-0.643,0.644-1.473,0.966-2.492,0.966
			c-1.018,0-1.799-0.351-2.344-1.056c-0.543-0.701-0.816-1.623-0.816-2.762s0.344-2.02,1.031-2.642
			c0.686-0.623,1.525-0.935,2.52-0.935h0.021c0.928,0,1.668,0.345,2.221,1.035c0.551,0.688,0.826,1.598,0.826,2.729
			S21.363,14.673,20.719,15.317z"/>
	</g>
</g>
</svg>
