<?xml version="1.0" encoding="utf-8"?>
<!-- Generator: Adobe Illustrator 16.0.0, SVG Export Plug-In . SVG Version: 6.00 Build 0)  -->
<!DOCTYPE svg PUBLIC "-//W3C//DTD SVG 1.1//EN" "http://www.w3.org/Graphics/SVG/1.1/DTD/svg11.dtd">
<svg version="1.1" id="Layer_1" xmlns="http://www.w3.org/2000/svg" xmlns:xlink="http://www.w3.org/1999/xlink" x="0px" y="0px"
	 width="35.157px" height="35.157px" viewBox="0 0 35.157 35.157" enable-background="new 0 0 35.157 35.157" xml:space="preserve">
<g>
	<path fill="#FFFFFF" d="M29.957,0.893c1.189-1.19,3.118-1.19,4.308-0.001c1.19,1.19,1.19,3.119,0.001,4.31L5.202,34.265
		c-1.189,1.189-3.119,1.189-4.31-0.001c-1.189-1.189-1.188-3.118,0.001-4.308L29.957,0.893z"/>
	<g>
		<path fill="#FFFFFF" d="M23.655,19.347l-4.309,4.309l10.609,10.609c1.189,1.189,3.119,1.189,4.31-0.001
			c1.189-1.189,1.188-3.118-0.001-4.308L23.655,19.347z"/>
		<path fill="#FFFFFF" d="M11.502,15.812l4.309-4.309L5.201,0.893c-1.189-1.19-3.118-1.19-4.308-0.001
			c-1.19,1.19-1.19,3.119-0.001,4.31L11.502,15.812z"/>
	</g>
</g>
<path fill="#FFFFFF" d="M29.957,0.893c1.189-1.19,3.118-1.19,4.308-0.001c1.19,1.19,1.19,3.119,0.001,4.31L5.202,34.265
	c-1.189,1.189-3.119,1.189-4.31-0.001c-1.189-1.189-1.188-3.118,0.001-4.308L29.957,0.893z"/>
</svg>
