<?xml version="1.0" encoding="utf-8"?>
<!-- Generator: Adobe Illustrator 16.0.0, SVG Export Plug-In . SVG Version: 6.00 Build 0)  -->
<!DOCTYPE svg PUBLIC "-//W3C//DTD SVG 1.1//EN" "http://www.w3.org/Graphics/SVG/1.1/DTD/svg11.dtd">
<svg version="1.1" id="Layer_1" xmlns="http://www.w3.org/2000/svg" xmlns:xlink="http://www.w3.org/1999/xlink" x="0px" y="0px"
	 width="47.195px" height="40.674px" viewBox="0 0 47.195 40.674" enable-background="new 0 0 47.195 40.674" xml:space="preserve">
<path fill="#FFFFFF" d="M47.195,32.674c0,4.418-3.582,8-8,8H8c-4.418,0-8-3.582-8-8H47.195z"/>
<path fill="#FFFFFF" d="M0,8c0-4.418,7.237-8,15.897-8h15.4c8.314,0,15.897,3.582,15.897,8H0z"/>
<path fill="#FFFFFF" d="M45.802,13.372H1.394c-0.77,0-1.394,0.73-1.394,1.5s0.624,1.5,1.394,1.5h22.665l7.747,4.515
	c0.185,0.111,0.469,0.203,0.653,0.091l7.746-4.606h5.598c0.77,0,1.394-0.73,1.394-1.5S46.571,13.372,45.802,13.372z"/>
<path fill="#FFFFFF" d="M44.148,21.349h-2.826l-7.827,4.745c-0.407,0.247-0.878,0.377-1.363,0.377c-0.486,0-0.957-0.13-1.364-0.377
	l-7.827-4.745H3.047C1.364,21.349,0,22.712,0,24.395c0,1.684,1.364,3.047,3.047,3.047h41.102c1.683,0,3.047-1.363,3.047-3.047
	C47.195,22.712,45.831,21.349,44.148,21.349z"/>
</svg>
