<?xml version="1.0" encoding="utf-8"?>
<!-- Generator: Adobe Illustrator 16.0.0, SVG Export Plug-In . SVG Version: 6.00 Build 0)  -->
<!DOCTYPE svg PUBLIC "-//W3C//DTD SVG 1.1//EN" "http://www.w3.org/Graphics/SVG/1.1/DTD/svg11.dtd">
<svg version="1.1" id="Layer_1" xmlns="http://www.w3.org/2000/svg" xmlns:xlink="http://www.w3.org/1999/xlink" x="0px" y="0px"
	 width="25.077px" height="25.076px" viewBox="0 0 25.077 25.076" enable-background="new 0 0 25.077 25.076" xml:space="preserve">
<g>
	<path fill="#FFFFFF" d="M19.253,2.124c0.123,1.104,0.49,1.992,1.099,2.597c0.606,0.611,1.493,0.975,2.6,1.098
		C24.566,2.553,25.077,0,25.077,0S22.521,0.509,19.253,2.124z M17.555,3.035c-1.762,1.02-3.626,2.355-5.351,4.078
		c-1.103,1.104-1.988,2.174-2.704,3.179l-4.368,0.806L0,16.233l4.576,0.145l3.221-3.223c-1.135,2.356-1.236,3.917-1.236,3.917
		l1.441,1.441c0,0,1.613-0.152,3.984-1.303l-3.289,3.287l0.144,4.578l5.133-5.133l0.811-4.391c1.015-0.712,2.086-1.592,3.177-2.683
		c1.724-1.724,3.058-3.589,4.078-5.35c-1.126-0.228-2.158-0.698-2.975-1.511C18.252,5.193,17.779,4.161,17.555,3.035z"/>
</g>
</svg>
