<?xml version="1.0" encoding="utf-8"?>
<!-- Generator: Adobe Illustrator 16.0.0, SVG Export Plug-In . SVG Version: 6.00 Build 0)  -->
<!DOCTYPE svg PUBLIC "-//W3C//DTD SVG 1.1//EN" "http://www.w3.org/Graphics/SVG/1.1/DTD/svg11.dtd">
<svg version="1.1" id="Layer_1" xmlns="http://www.w3.org/2000/svg" xmlns:xlink="http://www.w3.org/1999/xlink" x="0px" y="0px"
	 width="20.176px" height="31.838px" viewBox="0 0 20.176 31.838" enable-background="new 0 0 20.176 31.838" xml:space="preserve">
<g>
	<g>
		<polygon fill="#FFFFFF" points="12.504,20.935 11.367,22.029 10.086,23.26 8.807,22.029 7.67,20.935 6.172,21.426 4.662,21.92 
			4.662,31.838 9.988,28.491 15.512,31.838 15.512,21.921 14.002,21.426 		"/>
	</g>
	<g>
		<path fill="#FFFFFF" d="M18.793,10.35l1.383-2.304l-2.244-1.474l0.244-2.675l-2.66-0.353l-0.939-2.519l-2.551,0.834L10.086,0
			L8.152,1.859L5.598,1.025L4.66,3.544L1.996,3.897l0.25,2.675L0,8.046l1.383,2.304L0,12.65l2.246,1.473l-0.25,2.676l2.664,0.354
			l0.938,2.517l2.555-0.834l1.934,1.862l1.939-1.862l2.551,0.834l0.939-2.517l2.66-0.354l-0.244-2.676l2.244-1.473L18.793,10.35z
			 M11.594,14.359H8.629v-0.523c0.367,0,0.605-0.029,0.711-0.087c0.105-0.06,0.176-0.121,0.205-0.184
			c0.029-0.064,0.045-0.144,0.045-0.238V9.22c0-0.228-0.02-0.376-0.059-0.447C9.49,8.704,9.383,8.669,9.205,8.669H8.582V8.147
			c0.383,0,0.709-0.102,0.975-0.301c0.268-0.199,0.4-0.404,0.4-0.613l0.684-0.01l-0.004,6.104c0,0.201,0.043,0.326,0.129,0.376
			c0.143,0.088,0.418,0.133,0.828,0.133V14.359z"/>
	</g>
</g>
</svg>
