<?xml version="1.0" encoding="utf-8"?>
<!-- Generator: Adobe Illustrator 18.0.0, SVG Export Plug-In . SVG Version: 6.00 Build 0)  -->
<!DOCTYPE svg PUBLIC "-//W3C//DTD SVG 1.1//EN" "http://www.w3.org/Graphics/SVG/1.1/DTD/svg11.dtd">
<svg version="1.1" id="Layer_1" xmlns="http://www.w3.org/2000/svg" xmlns:xlink="http://www.w3.org/1999/xlink" x="0px" y="0px"
	 viewBox="0 0 77.6 75.2" enable-background="new 0 0 77.6 75.2" xml:space="preserve">
<path d="M59.3,0C48.8-0.5,40.1,4.3,38.8,13.9C37.6,4.3,28.8-0.5,18.3,0C7.6,0.6,0,10.5,0,22c0,23.5,35.3,50.6,38.8,53.2
	c3.5-2.6,38.8-29.7,38.8-53.2C77.6,10.5,70.1,0.6,59.3,0z M60.3,23.9c-0.4,5.2-5.1,13.7-13.6,22.6c-2.7,2.8-5.4,5.3-7.8,7.5
	c-2.4-2.1-5.1-4.7-7.8-7.5c-8.5-8.9-13.3-17.3-13.6-22.6c-0.2-3.2,0.1-5.7,2.9-6.6c3.4-1.2,6.8,1.1,11.1,10c2.5,5.1,6.6,5.7,7.4,5.7
	c0.8,0,4.9-0.5,7.4-5.7c4.3-8.9,7.8-11.2,11.1-10C60.2,18.3,60.5,20.7,60.3,23.9z"/>
</svg>
